<?xml version="1.0" standalone="no"?>
<!DOCTYPE svg PUBLIC "-//W3C//DTD SVG 20010904//EN"
 "http://www.w3.org/TR/2001/REC-SVG-20010904/DTD/svg10.dtd">
<svg version="1.0" xmlns="http://www.w3.org/2000/svg"
 width="1000px" height="1000px" viewBox="0 0 1406.000000 1100.000000"
 preserveAspectRatio="xMidYMid meet">
<metadata>
Created by potrace 1.15, written by Peter Selinger 2001-2017
</metadata>
<g transform="translate(0.000000,1406.000000) scale(0.100000,-0.100000)"
fill="#375C77" stroke="none">
<path d="M6705 14049 c-1114 -84 -2135 -502 -3020 -1235 -164 -136 -549 -520
-685 -684 -564 -680 -955 -1453 -1165 -2302 -119 -479 -169 -907 -168 -1423 1
-507 51 -927 169 -1405 207 -834 614 -1638 1158 -2285 121 -143 320 -359 402
-434 32 -30 86 -80 119 -111 97 -90 290 -250 425 -350 386 -285 803 -517 1240
-687 1350 -528 2871 -469 4176 162 1351 652 2376 1839 2859 3310 132 400 210
776 262 1250 25 229 25 902 0 1130 -81 747 -257 1365 -567 2000 -530 1083
-1403 1976 -2450 2504 -596 301 -1189 477 -1845 546 -178 19 -732 28 -910 14z
m-890 -1549 c1567 -131 2863 -882 3456 -2005 35 -66 84 -147 110 -180 66 -85
187 -272 255 -395 32 -58 95 -154 139 -215 285 -391 462 -818 537 -1300 30
-190 32 -661 5 -854 -111 -775 -420 -1397 -961 -1937 -265 -264 -504 -445
-846 -641 -522 -300 -1174 -505 -1835 -578 -171 -18 -443 -35 -587 -35 l-108
0 0 284 0 284 -196 -2 -197 -1 2 308 2 307 -195 0 -196 0 0 3484 c0 2778 3
3486 13 3490 17 8 456 -2 602 -14z"/>
<path d="M5242 9029 l3 -3444 60 -3 c33 -2 111 -1 173 3 l112 7 -2 3153 -3
3152 71 7 c94 7 506 -10 686 -29 898 -97 1699 -397 2347 -879 135 -101 231
-184 380 -330 132 -129 133 -128 23 43 -118 185 -229 320 -431 524 -612 621
-1524 1048 -2536 1186 -243 34 -345 41 -623 48 l-262 6 2 -3444z"/>
<path d="M5630 8725 l0 -3136 68 6 c37 4 108 11 159 16 51 5 99 9 108 9 13 0
15 293 15 2870 l0 2870 113 0 c1027 -2 2011 -281 2762 -784 163 -109 357 -259
464 -360 39 -37 42 -38 36 -16 -4 14 -24 61 -45 105 -31 65 -61 105 -158 210
-776 842 -2032 1344 -3364 1345 l-158 0 0 -3135z"/>
<path d="M6030 8471 c0 -1724 4 -2841 9 -2841 5 0 76 11 158 25 1146 193 2104
738 2710 1540 415 549 644 1241 645 1945 1 295 -32 536 -107 801 l-35 124 -72
69 c-615 584 -1486 984 -2438 1120 -253 36 -376 46 -637 53 l-233 6 0 -2842z"/>
<path d="M9482 9979 c15 -40 60 -235 77 -339 59 -349 52 -748 -20 -1120 -192
-998 -806 -1818 -1774 -2371 -469 -268 -1113 -483 -1670 -556 l-60 -8 -3 -303
-2 -302 37 0 c119 1 463 46 683 90 817 163 1517 504 2094 1018 324 289 598
656 788 1057 273 574 371 1270 267 1885 -39 234 -139 545 -228 716 -36 69
-207 279 -189 233z"/>
<path d="M9790 9600 c0 -3 16 -49 35 -104 108 -301 158 -609 159 -966 0 -233
-12 -370 -50 -580 -123 -678 -415 -1242 -899 -1739 -386 -396 -851 -704 -1404
-927 -417 -169 -927 -293 -1376 -334 -66 -6 -144 -13 -172 -16 l-53 -5 0 -261
0 -261 223 6 c739 21 1420 188 2047 501 402 202 733 438 1028 735 590 593 908
1302 963 2144 36 554 -96 1126 -370 1602 -62 106 -131 215 -131 205z"/>
<path d="M5855 5564 c-60 -6 -136 -13 -167 -13 l-58 -1 0 -290 0 -290 175 0
175 0 0 305 c0 168 -3 304 -7 304 -5 -1 -57 -8 -118 -15z"/>
</g>
</svg>
